<?xml version="1.0" standalone="no"?>
<!DOCTYPE svg PUBLIC "-//W3C//DTD SVG 20010904//EN"
 "http://www.w3.org/TR/2001/REC-SVG-20010904/DTD/svg10.dtd">
<svg version="1.0" xmlns="http://www.w3.org/2000/svg"
 width="350.000000pt" height="350.000000pt" viewBox="0 0 350.000000 350.000000"
 preserveAspectRatio="xMidYMid meet">

<g transform="translate(0.000000,350.000000) scale(0.100000,-0.100000)"
fill="#000000" stroke="none">
<path d="M1790 2781 c0 -6 4 -12 9 -15 11 -7 20 -53 13 -61 -3 -3 -11 4 -17
16 -10 18 -23 22 -78 26 -171 11 -374 -103 -454 -254 -34 -64 -53 -130 -34
-119 15 10 14 -9 -3 -42 -40 -78 -70 -262 -46 -277 6 -3 10 -17 10 -30 0 -31
35 -120 62 -158 20 -28 22 -28 29 -11 7 18 7 18 15 -1 29 -76 128 -168 237
-218 29 -14 101 -35 160 -47 140 -30 167 -54 110 -101 -20 -16 -22 -20 -8 -15
11 4 44 14 74 22 190 51 326 172 397 356 16 40 35 78 43 84 11 9 13 26 7 80
-10 102 -22 137 -61 177 -38 40 -42 52 -20 81 8 11 15 23 15 26 0 10 -79 34
-87 26 -4 -4 13 -45 37 -91 56 -105 52 -111 -53 -89 -42 8 -91 14 -109 12
l-33 -4 52 -23 c60 -27 69 -43 47 -79 -36 -60 -194 -162 -251 -162 -35 0 -54
40 -55 113 l0 65 -36 7 c-44 8 -86 29 -113 56 -14 14 -19 33 -19 75 0 60 9 85
47 125 l24 27 -34 21 c-19 11 -39 21 -46 21 -6 0 -11 5 -11 10 0 6 9 10 21 10
11 0 17 5 14 10 -3 6 -15 10 -26 10 -25 0 -24 10 4 51 38 56 108 93 189 97 55
4 66 7 58 17 -8 10 -4 15 19 20 38 8 67 0 109 -32 22 -16 41 -23 55 -19 29 7
67 -3 67 -18 0 -6 23 -26 50 -45 56 -38 106 -107 116 -159 4 -20 1 -57 -5 -83
-10 -38 -10 -52 0 -71 12 -22 12 -22 20 -3 26 66 -7 219 -60 286 -28 35 -30
39 -14 48 17 9 17 11 -2 25 -11 9 -42 24 -70 35 -45 17 -51 22 -56 56 -3 20
-13 44 -23 53 -15 15 -16 15 -16 -7 0 -16 -4 -21 -14 -18 -8 3 -17 1 -19 -6
-2 -7 -23 9 -46 35 -29 33 -58 53 -97 67 -59 23 -94 27 -94 12z m481 -698 c12
-32 4 -130 -13 -150 -17 -21 -42 -15 -71 15 -30 31 -49 83 -38 101 12 20 75
60 94 61 10 0 22 -11 28 -27z m-117 -126 c14 -18 32 -50 41 -70 15 -36 14 -39
-14 -96 -34 -66 -71 -101 -109 -101 -29 0 -169 73 -207 107 -38 36 -29 53 45
77 36 12 96 43 133 69 38 26 72 47 77 47 5 0 20 -15 34 -33z"/>
<path d="M1793 2343 c-8 -3 3 -18 28 -39 33 -27 50 -34 84 -34 26 0 47 -6 55
-15 7 -9 15 -13 18 -11 7 8 -38 75 -61 91 -20 14 -97 19 -124 8z"/>
<path d="M685 1298 c-27 -15 -35 -28 -35 -59 0 -33 23 -54 77 -69 41 -12 59
-32 47 -51 -7 -13 -71 -11 -96 2 -16 9 -23 8 -29 -2 -14 -22 -11 -26 22 -38
72 -25 149 3 149 53 0 34 -20 53 -75 73 -38 14 -51 24 -53 42 -4 23 -2 24 51
18 41 -4 57 -2 60 8 11 28 -78 46 -118 23z"/>
<path d="M860 1190 c0 -113 1 -120 20 -120 17 0 20 7 20 39 l0 38 47 6 c80 9
111 80 58 132 -20 21 -34 25 -85 25 l-60 0 0 -120z m128 52 c5 -33 -15 -52
-54 -52 -33 0 -34 1 -34 41 l0 40 43 -3 c35 -3 43 -7 45 -26z"/>
<path d="M1125 1301 c-49 -21 -80 -88 -65 -143 28 -97 150 -117 201 -34 60 98
-33 219 -136 177z m95 -51 c27 -27 27 -89 0 -118 -27 -29 -80 -29 -106 -1 -11
13 -19 35 -19 59 0 24 8 46 19 59 25 27 79 28 106 1z"/>
<path d="M1320 1190 c0 -113 1 -120 20 -120 17 0 20 7 20 40 0 38 2 40 29 40
24 0 34 -8 52 -40 16 -29 29 -40 46 -40 l23 0 -25 40 c-30 48 -30 44 -4 80 25
33 21 68 -13 100 -17 16 -35 20 -85 20 l-63 0 0 -120z m134 58 c18 -29 -4 -53
-53 -56 l-41 -3 0 41 0 41 41 -3 c27 -2 46 -9 53 -20z"/>
<path d="M1530 1290 c0 -16 7 -20 35 -20 l35 0 0 -100 c0 -93 1 -100 20 -100
19 0 20 7 20 100 l0 100 40 0 c33 0 40 3 40 20 0 19 -7 20 -95 20 -88 0 -95
-1 -95 -20z"/>
<path d="M1785 1298 c-27 -15 -35 -28 -35 -59 0 -33 19 -49 79 -70 33 -11 46
-21 46 -35 0 -15 -8 -20 -37 -22 -20 -2 -47 2 -59 8 -17 10 -23 9 -30 -1 -13
-22 15 -41 70 -47 43 -4 53 -1 75 21 47 47 30 85 -49 114 -37 14 -50 24 -50
38 0 17 7 20 50 19 56 -1 76 14 42 33 -28 15 -76 16 -102 1z"/>
<path d="M2260 1190 l0 -120 66 0 c63 0 101 11 116 34 14 20 8 53 -12 71 -17
16 -18 20 -5 38 20 29 19 53 -5 77 -16 16 -33 20 -90 20 l-70 0 0 -120z m135
50 c0 -23 -4 -25 -47 -28 -48 -3 -48 -3 -48 28 0 31 0 31 48 28 43 -3 47 -5
47 -28z m-1 -73 c10 -7 17 -22 14 -33 -2 -15 -13 -20 -56 -22 l-52 -3 0 35 c0
35 1 36 38 36 21 0 46 -6 56 -13z"/>
<path d="M2557 1303 c-7 -11 -87 -222 -87 -228 0 -3 8 -5 18 -5 10 0 22 12 29
30 10 27 15 30 58 30 42 0 47 -2 56 -30 12 -34 55 -45 44 -11 -47 149 -100
244 -118 214z m52 -130 c1 -8 -12 -13 -35 -13 -33 0 -36 2 -30 25 3 13 11 37
17 52 l11 28 18 -40 c10 -22 19 -46 19 -52z"/>
<path d="M2700 1306 c0 -2 18 -36 40 -75 30 -53 40 -81 40 -116 0 -38 3 -45
20 -45 17 0 20 7 20 44 0 33 10 62 40 115 22 39 40 73 40 76 0 3 -8 5 -18 5
-12 0 -27 -19 -45 -55 -15 -30 -31 -55 -37 -55 -6 0 -22 25 -37 55 -18 36 -33
55 -45 55 -10 0 -18 -2 -18 -4z"/>
<path d="M2032 1163 c2 -14 15 -19 51 -21 42 -3 47 -1 47 17 0 18 -6 21 -51
21 -43 0 -50 -3 -47 -17z"/>
<path d="M1588 783 c6 -2 18 -2 25 0 6 3 1 5 -13 5 -14 0 -19 -2 -12 -5z"/>
</g>
</svg>
